<svg xmlns="http://www.w3.org/2000/svg" viewBox="0 0 520 360" width="520" height="360" font-family="'Segoe UI',Helvetica,Arial,sans-serif">
  <text x="260" y="40" text-anchor="middle" font-size="27" font-weight="700" fill="#58A6FF">Most Used Languages</text>

  <!-- TypeScript 38.42% -->
  <text x="20" y="89" font-size="20" font-weight="700" fill="#4c97e0">TypeScript</text>
  <rect x="150" y="74" width="320" height="20" rx="10" fill="#8b949e" fill-opacity="0.18"/>
  <rect x="150" y="74" width="320" height="20" rx="10" fill="#4c97e0"/>
  <text x="478" y="90" font-size="18" font-weight="700" fill="#8b949e">38.4%</text>

  <!-- Lua 32.54% -->
  <text x="20" y="137" font-size="20" font-weight="700" fill="#7a86e0">Lua</text>
  <rect x="150" y="122" width="320" height="20" rx="10" fill="#8b949e" fill-opacity="0.18"/>
  <rect x="150" y="122" width="271" height="20" rx="10" fill="#7a86e0"/>
  <text x="478" y="138" font-size="18" font-weight="700" fill="#8b949e">32.5%</text>

  <!-- CSS 18.64% -->
  <text x="20" y="185" font-size="20" font-weight="700" fill="#a06bd6">CSS</text>
  <rect x="150" y="170" width="320" height="20" rx="10" fill="#8b949e" fill-opacity="0.18"/>
  <rect x="150" y="170" width="155" height="20" rx="10" fill="#a06bd6"/>
  <text x="478" y="186" font-size="18" font-weight="700" fill="#8b949e">18.6%</text>

  <!-- JavaScript 5.38% -->
  <text x="20" y="233" font-size="20" font-weight="700" fill="#e6c93f">JavaScript</text>
  <rect x="150" y="218" width="320" height="20" rx="10" fill="#8b949e" fill-opacity="0.18"/>
  <rect x="150" y="218" width="45" height="20" rx="10" fill="#e6c93f"/>
  <text x="478" y="234" font-size="18" font-weight="700" fill="#8b949e">5.4%</text>

  <!-- HTML 2.41% -->
  <text x="20" y="281" font-size="20" font-weight="700" fill="#ef6b3f">HTML</text>
  <rect x="150" y="266" width="320" height="20" rx="10" fill="#8b949e" fill-opacity="0.18"/>
  <rect x="150" y="266" width="20" height="20" rx="10" fill="#ef6b3f"/>
  <text x="478" y="282" font-size="18" font-weight="700" fill="#8b949e">2.4%</text>

  <!-- Twig 1.32% -->
  <text x="20" y="329" font-size="20" font-weight="700" fill="#9bb52c">Twig</text>
  <rect x="150" y="314" width="320" height="20" rx="10" fill="#8b949e" fill-opacity="0.18"/>
  <rect x="150" y="314" width="11" height="20" rx="10" fill="#9bb52c"/>
  <text x="478" y="330" font-size="18" font-weight="700" fill="#8b949e">1.3%</text>
</svg>
